<svg width="24" height="24" viewBox="0 0 24 24" fill="none" xmlns="http://www.w3.org/2000/svg">
  <path d="M12.0656 0C13.9873 3.97341e-05 15.1343 2.14111 14.0697 3.74096L13.0905 5.21201L13.3106 5.54265C13.5209 5.85866 13.6554 6.05985 13.7664 6.20444C13.8751 6.34599 13.9166 6.37236 13.9181 6.37333C14.0702 6.47078 14.2609 6.48584 14.4263 6.4133C14.4281 6.41254 14.4733 6.39281 14.6025 6.27009C14.7347 6.1446 14.899 5.96686 15.156 5.68756L17.9902 2.60736C18.3094 2.2606 18.8493 2.23823 19.1961 2.55736C19.5429 2.87651 19.5653 3.41644 19.2461 3.76325L16.4119 6.84327C16.1708 7.10522 15.9614 7.33345 15.7776 7.50795C15.5911 7.68508 15.3779 7.85967 15.1118 7.97636C14.4235 8.27819 13.6299 8.21588 12.9971 7.81036C12.7525 7.65357 12.569 7.44789 12.4124 7.24381C12.3057 7.10486 12.1912 6.9385 12.0654 6.75125C11.9395 6.93876 11.8249 7.10538 11.7181 7.24449C11.5615 7.44859 11.378 7.65425 11.1334 7.81104C10.501 8.21629 9.70794 8.27883 9.01993 7.97755C8.75375 7.86099 8.54038 7.68654 8.35371 7.50948C8.16982 7.33505 7.96031 7.10682 7.71914 6.84497L4.75392 3.62565C4.43461 3.27897 4.4569 2.73907 4.80358 2.41976C5.15026 2.10046 5.69016 2.12258 6.00947 2.46926L8.97451 5.68875C9.2317 5.96798 9.39606 6.14568 9.5283 6.27111C9.65609 6.39232 9.70178 6.41278 9.70451 6.41398C9.86985 6.48638 10.0606 6.4714 10.2125 6.37401C10.2149 6.37249 10.2568 6.34526 10.3643 6.20529C10.4752 6.0607 10.6096 5.85937 10.8199 5.54333L11.0403 5.21184L10.0615 3.74096C8.99688 2.1411 10.1439 0 12.0656 0ZM12.0656 1.70695C11.5065 1.70695 11.1727 2.32981 11.4824 2.79531L12.0654 3.67157L12.6486 2.79531C12.9584 2.32982 12.6247 1.70699 12.0656 1.70695Z" fill="#55644A"/>
  <path d="M11.9344 24C10.0127 24 8.8657 21.8589 9.93032 20.259L10.9095 18.788L10.6894 18.4574C10.4791 18.1413 10.3446 17.9401 10.2336 17.7956C10.1249 17.654 10.0834 17.6276 10.0819 17.6267C9.92981 17.5292 9.73906 17.5142 9.57366 17.5867C9.57192 17.5875 9.52671 17.6072 9.39745 17.7299C9.26528 17.8554 9.10102 18.0331 8.84401 18.3124L6.00975 21.3926C5.6906 21.7394 5.15067 21.7618 4.80387 21.4426C4.4571 21.1235 4.43473 20.5836 4.75386 20.2368L7.58812 17.1567C7.82916 16.8948 8.03856 16.6665 8.22235 16.492C8.40892 16.3149 8.62215 16.1403 8.88823 16.0236C9.5765 15.7218 10.3701 15.7841 11.0029 16.1896C11.2475 16.3464 11.431 16.5521 11.5876 16.7562C11.6943 16.8951 11.8088 17.0615 11.9346 17.2487C12.0605 17.0612 12.1751 16.8946 12.2819 16.7555C12.4385 16.5514 12.622 16.3458 12.8666 16.189C13.499 15.7837 14.2921 15.7212 14.9801 16.0225C15.2462 16.139 15.4596 16.3135 15.6463 16.4905C15.8302 16.6649 16.0397 16.8932 16.2809 17.155L19.2461 20.3744C19.5654 20.721 19.5431 21.2609 19.1964 21.5802C18.8497 21.8995 18.3098 21.8774 17.9905 21.5307L15.0255 18.3113C14.7683 18.032 14.6039 17.8543 14.4717 17.7289C14.3439 17.6077 14.2982 17.5872 14.2955 17.586C14.1302 17.5136 13.9394 17.5286 13.7875 17.626C13.7851 17.6275 13.7432 17.6547 13.6357 17.7947C13.5248 17.9393 13.3904 18.1406 13.1801 18.4567L12.9597 18.7882L13.9385 20.259C15.0031 21.8589 13.8561 24 11.9344 24ZM11.9344 22.2931C12.4935 22.2931 12.8273 21.6702 12.5176 21.2047L11.9346 20.3284L11.3514 21.2047C11.0416 21.6702 11.3753 22.293 11.9344 22.2931Z" fill="#55644A"/>
  <path d="M24 12.0656C24 13.9873 21.8589 15.1343 20.259 14.0697L18.788 13.0905L18.4574 13.3106C18.1413 13.5209 17.9401 13.6554 17.7956 13.7664C17.654 13.8751 17.6276 13.9166 17.6267 13.9181C17.5292 14.0702 17.5142 14.2609 17.5867 14.4263C17.5875 14.4281 17.6072 14.4733 17.7299 14.6025C17.8554 14.7347 18.0331 14.899 18.3124 15.156L21.3926 17.9902C21.7394 18.3094 21.7618 18.8493 21.4426 19.1961C21.1235 19.5429 20.5836 19.5653 20.2368 19.2461L17.1567 16.4119C16.8948 16.1708 16.6665 15.9614 16.492 15.7776C16.3149 15.5911 16.1403 15.3779 16.0236 15.1118C15.7218 14.4235 15.7841 13.6299 16.1896 12.9971C16.3464 12.7525 16.5521 12.569 16.7562 12.4124C16.8951 12.3057 17.0615 12.1912 17.2487 12.0654C17.0612 11.9395 16.8946 11.8249 16.7555 11.7181C16.5514 11.5615 16.3458 11.378 16.189 11.1334C15.7837 10.501 15.7212 9.70794 16.0224 9.01993C16.139 8.75375 16.3135 8.54039 16.4905 8.35371C16.6649 8.16982 16.8932 7.96031 17.155 7.71914L20.3744 4.75392C20.721 4.43461 21.2609 4.4569 21.5802 4.80358C21.8995 5.15027 21.8774 5.69016 21.5307 6.00947L18.3113 8.97452C18.032 9.2317 17.8543 9.39606 17.7289 9.5283C17.6077 9.65609 17.5872 9.70178 17.586 9.70451C17.5136 9.86985 17.5286 10.0606 17.626 10.2125C17.6275 10.2149 17.6547 10.2568 17.7947 10.3643C17.9393 10.4752 18.1406 10.6096 18.4567 10.8199L18.7882 11.0403L20.259 10.0615C21.8589 8.99688 24 10.1439 24 12.0656ZM22.2931 12.0656C22.2931 11.5065 21.6702 11.1727 21.2047 11.4824L20.3284 12.0654L21.2047 12.6486C21.6702 12.9584 22.293 12.6247 22.2931 12.0656Z" fill="#55644A"/>
  <path d="M0 11.9344C3.99861e-05 10.0127 2.14111 8.8657 3.74096 9.93032L5.21201 10.9095L5.54265 10.6894C5.85866 10.4791 6.05985 10.3446 6.20444 10.2336C6.34599 10.1249 6.37236 10.0834 6.37333 10.0819C6.47078 9.92981 6.48584 9.73906 6.4133 9.57366C6.41254 9.57192 6.39281 9.52671 6.27009 9.39746C6.1446 9.26528 5.96686 9.10102 5.68756 8.84401L2.60737 6.00975C2.2606 5.6906 2.23823 5.15068 2.55736 4.80387C2.87652 4.4571 3.41644 4.43473 3.76325 4.75386L6.84327 7.58812C7.10522 7.82916 7.33345 8.03856 7.50795 8.22236C7.68508 8.40892 7.85967 8.62215 7.97636 8.88823C8.27819 9.5765 8.21588 10.3701 7.81036 11.0029C7.65357 11.2475 7.44789 11.431 7.24381 11.5876C7.10486 11.6943 6.9385 11.8088 6.75125 11.9346C6.93876 12.0605 7.10538 12.1751 7.24449 12.2819C7.44859 12.4385 7.65425 12.622 7.81104 12.8666C8.21629 13.499 8.27883 14.2921 7.97755 14.9801C7.86099 15.2463 7.68654 15.4596 7.50948 15.6463C7.33505 15.8302 7.10682 16.0397 6.84497 16.2809L3.62565 19.2461C3.27896 19.5654 2.73907 19.5431 2.41976 19.1964C2.10046 18.8497 2.12257 18.3098 2.46926 17.9905L5.68875 15.0255C5.96798 14.7683 6.14568 14.6039 6.27111 14.4717C6.39232 14.3439 6.41278 14.2982 6.41398 14.2955C6.48638 14.1302 6.4714 13.9394 6.37401 13.7875C6.37249 13.7851 6.34526 13.7432 6.20529 13.6357C6.0607 13.5248 5.85937 13.3904 5.54333 13.1801L5.21184 12.9597L3.74096 13.9385C2.1411 15.0031 -2.52003e-07 13.8561 0 11.9344ZM1.70695 11.9344C1.70695 12.4935 2.32981 12.8273 2.79531 12.5176L3.67157 11.9346L2.79531 11.3514C2.32982 11.0416 1.70699 11.3753 1.70695 11.9344Z" fill="#55644A"/>
</svg>
