<svg width="16" height="16" viewBox="0 0 16 16" fill="none" xmlns="http://www.w3.org/2000/svg">
<path d="M8.00651 11.3332C8.3747 11.3332 8.67318 11.6316 8.67318 11.9998C8.67318 12.368 8.3747 12.6665 8.00651 12.6665H8C7.63181 12.6665 7.33333 12.368 7.33333 11.9998C7.33333 11.6316 7.63181 11.3332 8 11.3332H8.00651Z" fill="black"/>
<path fill-rule="evenodd" clip-rule="evenodd" d="M11 0.666504C12.1046 0.666504 13 1.56193 13 2.6665V13.3332C13 14.4377 12.1046 15.3332 11 15.3332H5C3.89543 15.3332 3 14.4377 3 13.3332V2.6665C3 1.56193 3.89543 0.666504 5 0.666504H11ZM5 1.99984C4.63181 1.99984 4.33333 2.29831 4.33333 2.6665V13.3332C4.33333 13.7014 4.63181 13.9998 5 13.9998H11C11.3682 13.9998 11.6667 13.7014 11.6667 13.3332V2.6665C11.6667 2.29831 11.3682 1.99984 11 1.99984H5Z" fill="black"/>
</svg>
