<svg xmlns="http://www.w3.org/2000/svg" width="72" height="12" viewBox="0 0 72 12" fill="#0D0D0D">
  <path fill-rule="evenodd" clip-rule="evenodd" d="M14.0539 2.53C15.3311 2.53 16.4252 2.97219 17.3449 3.83546L17.4333 3.92031L17.4344 3.92137C18.3553 4.84175 18.8268 5.98257 18.8268 7.265C18.8268 8.56522 18.3551 9.68848 17.4344 10.6086L17.4333 10.6097C16.4956 11.5288 15.3723 12 14.0539 12C12.7364 12 11.5946 11.5295 10.6732 10.6086C9.73382 9.68725 9.28099 8.56322 9.28099 7.265C9.28099 5.98451 9.73351 4.84301 10.6732 3.92137C11.5946 3.00051 12.7364 2.53 14.0539 2.53ZM14.0539 4.23553C13.1904 4.23553 12.4806 4.53158 11.8648 5.12975L11.8649 5.12993C11.2665 5.728 10.9702 6.43689 10.9702 7.265C10.9702 8.11012 11.2661 8.80181 11.8649 9.40025C12.479 10.014 13.1877 10.2945 14.0539 10.2945C14.9191 10.2945 15.6105 10.0146 16.2253 9.40025C16.8241 8.80181 17.12 8.11012 17.12 7.265C17.12 6.41991 16.824 5.72835 16.2253 5.12993C15.6088 4.53117 14.9163 4.23554 14.0539 4.23553Z" />
  <path d="M22.3082 9.02733C22.3082 9.4292 22.419 9.71589 22.6444 9.94107C22.891 10.1875 23.1626 10.2945 23.5237 10.2945C24.5851 10.2945 25.5772 9.8142 26.5026 8.85658V4.51473H25.549C25.2715 4.51473 25.0305 4.45997 24.8475 4.28222C24.6735 4.13004 24.5648 3.91121 24.5648 3.65318C24.5648 3.41024 24.6754 3.19209 24.8475 3.04153C25.0233 2.88782 25.2567 2.80919 25.549 2.80919H28.2094V9.99787H28.3948C28.6762 9.99787 28.9143 10.0539 29.0961 10.2128L29.1002 10.2164L29.1041 10.2203C29.2675 10.3836 29.379 10.5976 29.379 10.8419C29.379 11.0778 29.2912 11.2978 29.0972 11.4702L29.0961 11.4711C28.9143 11.63 28.6762 11.686 28.3948 11.686H26.5026V11.0573C25.5881 11.6838 24.5971 12 23.5587 12C22.6877 12 21.9947 11.7452 21.5027 11.2346L21.5015 11.2332C20.9165 10.612 20.6016 9.87477 20.6016 9.02733V4.51473H20.0318C19.7544 4.51472 19.5134 4.46006 19.3305 4.28239L19.2976 4.25186C19.1388 4.09566 19.0651 3.88514 19.0651 3.65318C19.0651 3.41432 19.1548 3.21661 19.3225 3.04899L19.3264 3.04508L19.3305 3.04153C19.5062 2.88783 19.7395 2.80921 20.0318 2.80919H22.3082V9.02733Z" />
  <path fill-rule="evenodd" clip-rule="evenodd" d="M46.4049 2.53C47.4473 2.53 48.3061 2.79936 48.9325 3.32215L48.9924 3.37345L48.9925 3.3738C49.6311 3.939 49.9731 4.60916 49.9731 5.34576V9.99787H50.5253C50.8225 9.99787 51.0614 10.0532 51.244 10.2128L51.2481 10.2164L51.252 10.2203C51.4229 10.3911 51.5095 10.6074 51.5095 10.8419C51.5095 11.0742 51.424 11.2963 51.244 11.4537C51.0603 11.6321 50.8182 11.686 50.5253 11.686H48.2489V11.0286C47.2691 11.6644 46.2245 12 45.1304 12C44.1071 12 43.2603 11.7306 42.6459 11.1723C42.0171 10.617 41.7194 9.90924 41.7194 9.11448C41.7194 8.2204 42.1317 7.4259 42.9144 6.78914L42.9146 6.78896C43.8892 5.99878 45.3908 5.70462 47.4161 5.93308C47.679 5.94807 47.963 5.98641 48.2489 6.03798V5.34576C48.2489 5.07643 48.1255 4.84108 47.8408 4.61981L47.8358 4.6159C47.5478 4.37351 47.0535 4.23553 46.3699 4.23553C45.8207 4.23555 45.0203 4.40321 43.9774 4.75062L43.9747 4.75151L43.9719 4.7524C43.6773 4.83899 43.551 4.86368 43.4544 4.86368C43.2319 4.86368 43.03 4.77308 42.8772 4.59851C42.7264 4.44354 42.6447 4.22956 42.6447 4.00213C42.6447 3.72672 42.7531 3.54691 42.8672 3.43291C42.9895 3.31066 43.2063 3.18016 44.1101 2.93699L44.111 2.93663C45.1068 2.67473 45.8581 2.53 46.4049 2.53ZM46.3001 7.55076C45.2743 7.55077 44.4766 7.77284 43.939 8.17891L43.9392 8.17909C43.5654 8.47147 43.4086 8.75953 43.4085 9.11448C43.4085 9.42735 43.5402 9.69881 43.8071 9.93415C44.0615 10.1585 44.4864 10.2945 45.0954 10.2945C45.6844 10.2945 46.2534 10.1767 46.753 9.94409C47.2273 9.71521 47.7363 9.37367 48.2489 8.88711V7.74317C48.0138 7.68978 47.7675 7.64848 47.5206 7.61945L47.5186 7.6191C47.1264 7.56797 46.7323 7.55076 46.3001 7.55076Z" />
  <path fill-rule="evenodd" clip-rule="evenodd" d="M66.8347 2.53C68.2013 2.53 69.3796 2.99847 70.2686 3.90504C71.1752 4.82911 71.6255 6.00679 71.6076 7.4416V7.89972H63.8465C64.0041 8.49934 64.3031 9.00068 64.7452 9.40735L64.8456 9.49574L64.8468 9.49681C65.4596 10.0265 66.2059 10.2945 67.1491 10.2945C67.6721 10.2945 68.2317 10.2101 68.8112 10.0399C69.3953 9.85096 69.8621 9.63204 70.2061 9.35374L70.2079 9.35233L70.2099 9.35091C70.4153 9.19449 70.6307 9.11493 70.8416 9.12336C71.0524 9.13179 71.2384 9.22744 71.3851 9.38268C71.5392 9.53673 71.625 9.75342 71.625 9.96947C71.625 10.1226 71.5806 10.3782 71.3501 10.6086C70.9939 10.9645 70.4271 11.2886 69.6129 11.5717L69.6131 11.5719C68.8102 11.8572 67.9886 12 67.1491 12C65.6948 12 64.4835 11.514 63.5087 10.5584L63.4187 10.4696C62.5031 9.54578 62.0444 8.4003 62.0444 7.09052C62.0444 5.8424 62.4988 4.75273 63.4215 3.8667C64.3438 2.98113 65.485 2.53 66.8347 2.53ZM66.8347 4.23553C66.0323 4.23554 65.3703 4.46813 64.7894 4.93255L64.7889 4.93291C64.3681 5.26643 64.075 5.68933 63.8977 6.19418H69.771C69.5916 5.69585 69.286 5.28287 68.8606 4.93095C68.2984 4.46826 67.6375 4.23553 66.8347 4.23553Z" />
  <path d="M3.09686 0C3.38915 0 3.62243 0.0786495 3.79821 0.232339C3.9782 0.389729 4.06372 0.611672 4.06373 0.843983C4.06373 1.0914 3.97975 1.31445 3.79821 1.4732C3.64166 1.61007 3.43947 1.68706 3.19063 1.70234L5.20767 4.73376L7.17977 1.70181C6.93584 1.68486 6.72367 1.60904 6.56828 1.4732C6.38675 1.31445 6.30277 1.0914 6.30277 0.843983C6.30278 0.611672 6.3883 0.389729 6.56828 0.232339C6.74605 0.076925 6.9981 2.30907e-06 7.28704 0H9.39963C9.69192 4.48187e-06 9.9252 0.0786392 10.101 0.232339C10.275 0.384519 10.3839 0.603477 10.3839 0.861555C10.3839 1.10448 10.2731 1.32265 10.101 1.4732C9.9252 1.62689 9.69191 1.70553 9.39963 1.70554H9.19165L6.07153 6.51065V9.98048H7.6014C7.86522 9.98049 8.09097 10.0297 8.26794 10.1668L8.30275 10.1954L8.30364 10.1961C8.49763 10.3685 8.58549 10.5885 8.5855 10.8245C8.5855 11.059 8.49908 11.2754 8.32815 11.4462L8.32424 11.4499L8.32016 11.4537C8.14241 11.6091 7.89032 11.686 7.6014 11.686H2.81749C2.52522 11.686 2.29191 11.6074 2.11614 11.4537L2.11205 11.4499L2.10814 11.4462C1.94473 11.2829 1.83322 11.0687 1.83322 10.8245C1.83322 10.5847 1.94109 10.3692 2.10939 10.2188C2.27946 10.0322 2.5296 9.98048 2.81749 9.98048H4.36477V6.51136L1.17573 1.70554H0.966869C0.674585 1.70554 0.441295 1.62689 0.265516 1.4732C0.0839788 1.31445 0 1.0914 0 0.843983C1.11284e-05 0.611672 0.0855325 0.389729 0.265516 0.232339C0.441297 0.0786423 0.674576 7.70317e-07 0.966869 0H3.09686Z" />
  <path d="M33.7519 0C34.0599 1.40864e-05 34.2939 0.0777548 34.4706 0.232339C34.6522 0.391088 34.736 0.614139 34.736 0.861555C34.736 1.09385 34.6506 1.31582 34.4706 1.4732C34.2939 1.62777 34.0599 1.70552 33.7519 1.70554H32.4685L33.1734 7.91125L34.7099 2.39031H35.6549V2.44444H35.6897V2.39031H36.5989L38.185 7.93894L38.8766 1.70554H37.5753C37.283 1.70553 37.0497 1.62689 36.874 1.4732C36.694 1.31582 36.6086 1.09385 36.6086 0.861555C36.6086 0.614139 36.6924 0.391088 36.874 0.232339C37.0497 0.07864 37.283 3.42363e-06 37.5753 0H40.4386C40.7309 1.24497e-06 40.9642 0.0786422 41.14 0.232339C41.3122 0.382898 41.4229 0.601044 41.4229 0.843983C41.4229 1.10206 41.314 1.32102 41.14 1.4732C40.9911 1.60337 40.8009 1.67936 40.5686 1.69968L39.4856 11.6686H37.5043L35.6736 5.28151L33.8759 11.6686H31.8951L30.7417 1.69808C30.517 1.6756 30.3323 1.60024 30.187 1.4732C30.0071 1.31582 29.9217 1.09385 29.9217 0.861555C29.9217 0.614153 30.0055 0.391086 30.187 0.232339C30.3628 0.0786224 30.5963 0 30.8886 0H33.7519Z" />
  <path d="M59.6452 2.59993C60.1467 2.61752 60.6134 2.78403 61.0425 3.09372L61.1278 3.15761L61.1296 3.15886L61.1313 3.16045C61.3795 3.36419 61.5661 3.54416 61.6913 3.71264C61.8175 3.88238 61.8895 4.0513 61.8895 4.22897C61.8895 4.46228 61.8041 4.67472 61.657 4.84274L61.6533 4.84682L61.6496 4.85073C61.3911 5.10905 60.966 5.17505 60.6575 5.02094L60.6484 5.01633L60.6399 5.01065C60.5772 4.96888 60.5002 4.91 60.3064 4.73394L60.3012 4.72932L60.2964 4.72417C60.0757 4.48662 59.9383 4.40253 59.8842 4.3809L59.8737 4.37664L59.8638 4.37096C59.7737 4.31954 59.682 4.30529 59.5958 4.30529C59.3593 4.30531 59.0403 4.41048 58.6108 4.65087C58.1994 4.8811 57.4456 5.48046 56.3725 6.43149V9.98048H59.334C59.5948 9.98048 59.8373 10.0284 60.0176 10.1665L60.0528 10.1954L60.0568 10.199L60.0608 10.2029C60.2316 10.3737 60.3183 10.59 60.3183 10.8245C60.3183 11.0568 60.2327 11.2787 60.0528 11.4361C59.869 11.6145 59.6269 11.6686 59.334 11.6686H53.2756C52.9942 11.6686 52.756 11.6126 52.5743 11.4537C52.3943 11.2963 52.3089 11.0742 52.3089 10.8419C52.3089 10.6096 52.3943 10.3876 52.5743 10.2302C52.7392 10.071 52.9948 9.99788 53.2756 9.99787H54.6833V4.49734H53.7122C53.4347 4.49734 53.1938 4.44249 53.0108 4.26482L52.9778 4.23429C52.819 4.07811 52.7453 3.86767 52.7453 3.63578C52.7453 3.39691 52.8351 3.19922 53.0028 3.03159C53.1674 2.86707 53.4269 2.79162 53.7122 2.79162H56.3725V4.18814C57.0303 3.63451 57.5496 3.26133 57.9643 3.03816L57.9661 3.0371C58.5516 2.73103 59.1123 2.58126 59.6452 2.59993Z" />
</svg>